<svg xmlns="http://www.w3.org/2000/svg" xmlns:xlink="http://www.w3.org/1999/xlink" width="30" zoomAndPan="magnify" viewBox="0 0 187.5 187.499992" height="30" preserveAspectRatio="xMidYMid meet" version="1.0"><defs><clipPath id="29510c5a44"><path d="M 18.699219 50.578125 L 169 50.578125 L 169 136.597656 L 18.699219 136.597656 Z M 18.699219 50.578125 " clip-rule="nonzero"/></clipPath></defs><g clip-path="url(#29510c5a44)"><path fill="#ffffff" d="M 61.589844 132.820312 C 61.589844 134.761719 60.015625 136.34375 58.066406 136.34375 C 56.125 136.34375 54.550781 134.769531 54.550781 132.820312 C 54.550781 123.285156 57.953125 114.539062 63.609375 107.734375 C 61.894531 105.507812 59.753906 103.632812 57.300781 102.234375 C 54.234375 100.492188 50.667969 99.492188 46.859375 99.492188 C 41.027344 99.492188 35.746094 101.851562 31.925781 105.671875 C 28.105469 109.492188 25.746094 114.773438 25.746094 120.605469 C 25.746094 122.550781 24.171875 124.128906 22.222656 124.128906 C 20.28125 124.128906 18.699219 122.554688 18.699219 120.605469 C 18.699219 112.832031 21.855469 105.792969 26.949219 100.695312 C 29.253906 98.394531 31.960938 96.484375 34.953125 95.082031 C 34.597656 94.777344 34.25 94.460938 33.917969 94.125 C 30.609375 90.816406 28.558594 86.238281 28.558594 81.183594 C 28.558594 76.128906 30.609375 71.550781 33.917969 68.242188 C 37.226562 64.929688 41.808594 62.882812 46.859375 62.882812 C 51.914062 62.882812 56.488281 64.929688 59.804688 68.242188 C 63.113281 71.550781 65.164062 76.128906 65.164062 81.183594 C 65.164062 86.238281 63.113281 90.808594 59.804688 94.125 C 59.472656 94.460938 59.125 94.777344 58.769531 95.082031 C 59.449219 95.402344 60.121094 95.75 60.773438 96.125 C 63.773438 97.832031 66.429688 100.074219 68.605469 102.714844 C 71.875 99.972656 75.601562 97.753906 79.65625 96.179688 C 78.410156 95.316406 77.242188 94.34375 76.175781 93.273438 C 71.664062 88.761719 68.871094 82.515625 68.871094 75.625 C 68.871094 68.738281 71.664062 62.492188 76.175781 57.976562 C 80.691406 53.460938 86.9375 50.667969 93.828125 50.667969 C 100.714844 50.667969 106.960938 53.460938 111.476562 57.976562 C 115.992188 62.492188 118.785156 68.738281 118.785156 75.625 C 118.785156 82.515625 115.992188 88.761719 111.476562 93.273438 C 110.40625 94.34375 109.242188 95.316406 107.996094 96.179688 C 112.042969 97.746094 115.769531 99.972656 119.046875 102.714844 C 121.222656 100.074219 123.878906 97.832031 126.878906 96.125 C 127.53125 95.75 128.203125 95.402344 128.882812 95.082031 C 128.53125 94.777344 128.183594 94.460938 127.847656 94.125 C 124.539062 90.816406 122.492188 86.238281 122.492188 81.183594 C 122.492188 76.128906 124.539062 71.550781 127.847656 68.242188 C 131.160156 64.929688 135.738281 62.882812 140.792969 62.882812 C 145.847656 62.882812 150.425781 64.929688 153.734375 68.242188 C 157.046875 71.550781 159.09375 76.128906 159.09375 81.183594 C 159.09375 86.238281 157.046875 90.808594 153.734375 94.125 C 153.402344 94.460938 153.0625 94.777344 152.699219 95.082031 C 155.691406 96.480469 158.398438 98.394531 160.703125 100.695312 C 165.800781 105.792969 168.953125 112.832031 168.953125 120.605469 C 168.953125 122.550781 167.378906 124.128906 165.429688 124.128906 C 163.488281 124.128906 161.90625 122.554688 161.90625 120.605469 C 161.90625 114.773438 159.546875 109.492188 155.726562 105.671875 C 151.90625 101.851562 146.625 99.492188 140.792969 99.492188 C 136.984375 99.492188 133.421875 100.492188 130.351562 102.234375 C 127.898438 103.632812 125.757812 105.507812 124.042969 107.734375 C 129.699219 114.539062 133.101562 123.277344 133.101562 132.820312 C 133.101562 134.761719 131.527344 136.34375 129.585938 136.34375 C 127.644531 136.34375 126.0625 134.769531 126.0625 132.820312 C 126.0625 123.925781 122.457031 115.863281 116.628906 110.039062 C 110.800781 104.210938 102.742188 100.605469 93.847656 100.605469 C 84.953125 100.605469 76.894531 104.210938 71.066406 110.039062 C 65.242188 115.863281 61.632812 123.925781 61.632812 132.820312 Z M 38.894531 89.148438 C 40.929688 91.183594 43.742188 92.445312 46.855469 92.445312 C 49.964844 92.445312 52.78125 91.183594 54.8125 89.148438 C 56.847656 87.117188 58.109375 84.292969 58.109375 81.191406 C 58.109375 78.078125 56.847656 75.265625 54.8125 73.230469 C 52.78125 71.195312 49.957031 69.933594 46.855469 69.933594 C 43.742188 69.933594 40.929688 71.195312 38.894531 73.230469 C 36.859375 75.265625 35.597656 78.078125 35.597656 81.191406 C 35.597656 84.300781 36.859375 87.117188 38.894531 89.148438 Z M 140.769531 92.445312 C 143.882812 92.445312 146.695312 91.183594 148.730469 89.148438 C 150.765625 87.117188 152.027344 84.292969 152.027344 81.191406 C 152.027344 78.078125 150.765625 75.265625 148.730469 73.230469 C 146.695312 71.195312 143.882812 69.933594 140.769531 69.933594 C 137.660156 69.933594 134.84375 71.195312 132.8125 73.230469 C 130.777344 75.265625 129.515625 78.078125 129.515625 81.191406 C 129.515625 84.300781 130.777344 87.117188 132.8125 89.148438 C 134.84375 91.183594 137.667969 92.445312 140.769531 92.445312 Z M 93.8125 93.558594 C 98.761719 93.558594 103.238281 91.554688 106.484375 88.304688 C 109.726562 85.066406 111.738281 80.585938 111.738281 75.632812 C 111.738281 70.6875 109.730469 66.207031 106.484375 62.960938 C 103.246094 59.71875 98.761719 57.714844 93.8125 57.714844 C 88.863281 57.714844 84.386719 59.71875 81.140625 62.960938 C 77.898438 66.199219 75.886719 70.6875 75.886719 75.632812 C 75.886719 80.582031 77.894531 85.058594 81.140625 88.304688 C 84.378906 91.546875 88.863281 93.558594 93.8125 93.558594 Z M 93.8125 93.558594 " fill-opacity="1" fill-rule="nonzero"/></g></svg>