<svg xmlns="http://www.w3.org/2000/svg" xmlns:xlink="http://www.w3.org/1999/xlink" width="30" zoomAndPan="magnify" viewBox="0 0 187.5 187.499992" height="30" preserveAspectRatio="xMidYMid meet" version="1.0"><defs><clipPath id="6f3a339045"><path d="M 17.34375 39.636719 L 169.9375 39.636719 L 169.9375 147.351562 L 17.34375 147.351562 Z M 17.34375 39.636719 " clip-rule="nonzero"/></clipPath></defs><g clip-path="url(#6f3a339045)"><path fill="#ffffff" d="M 161.3125 55.957031 L 152.90625 55.957031 L 152.90625 48.199219 C 152.90625 43.527344 149.105469 39.722656 144.429688 39.722656 L 26.332031 39.722656 C 21.65625 39.722656 17.851562 43.527344 17.851562 48.199219 L 17.851562 122.828125 C 17.851562 127.503906 21.65625 131.304688 26.332031 131.304688 L 34.082031 131.304688 L 34.082031 139.710938 C 34.082031 144.027344 37.59375 147.535156 41.90625 147.535156 L 161.3125 147.535156 C 165.625 147.535156 169.136719 144.027344 169.136719 139.710938 L 169.136719 63.78125 C 169.136719 59.464844 165.625 55.957031 161.3125 55.957031 Z M 26.332031 44.941406 L 144.429688 44.941406 C 146.226562 44.941406 147.691406 46.402344 147.691406 48.199219 L 147.691406 105.347656 L 117.054688 74.710938 C 115.078125 72.730469 111.863281 72.730469 109.886719 74.710938 L 91.753906 92.839844 L 68.382812 69.46875 C 66.40625 67.492188 63.195312 67.492188 61.21875 69.46875 L 23.070312 107.617188 L 23.070312 48.199219 C 23.070312 46.402344 24.53125 44.941406 26.332031 44.941406 Z M 23.070312 122.828125 L 23.070312 114.992188 L 64.695312 73.15625 L 110.488281 118.949219 C 110.996094 119.457031 111.664062 119.714844 112.332031 119.714844 C 113 119.714844 113.667969 119.457031 114.175781 118.949219 C 115.195312 117.929688 115.195312 116.28125 114.175781 115.261719 L 95.4375 96.519531 L 113.367188 78.398438 L 147.691406 112.726562 L 147.691406 122.832031 C 147.691406 124.628906 146.226562 126.089844 144.429688 126.089844 L 26.332031 126.089844 C 24.53125 126.089844 23.070312 124.628906 23.070312 122.828125 Z M 163.921875 139.710938 C 163.921875 141.152344 162.75 142.320312 161.3125 142.320312 L 41.90625 142.320312 C 40.46875 142.320312 39.300781 141.152344 39.300781 139.710938 L 39.300781 131.304688 L 144.429688 131.304688 C 149.105469 131.304688 152.90625 127.503906 152.90625 122.828125 L 152.90625 61.171875 L 161.3125 61.171875 C 162.75 61.171875 163.921875 62.339844 163.921875 63.78125 Z M 163.921875 139.710938 " fill-opacity="1" fill-rule="nonzero"/></g><path fill="#ffffff" d="M 89.730469 68.996094 C 94.886719 68.996094 99.082031 64.804688 99.082031 59.644531 C 99.082031 54.484375 94.886719 50.289062 89.726562 50.289062 C 84.570312 50.289062 80.375 54.484375 80.375 59.644531 C 80.375 64.804688 84.570312 68.996094 89.730469 68.996094 Z M 89.730469 55.507812 C 92.011719 55.507812 93.867188 57.363281 93.867188 59.644531 C 93.867188 61.921875 92.011719 63.78125 89.726562 63.78125 C 87.445312 63.78125 85.589844 61.921875 85.589844 59.644531 C 85.589844 57.363281 87.445312 55.507812 89.730469 55.507812 Z M 89.730469 55.507812 " fill-opacity="1" fill-rule="nonzero"/></svg>