<svg xmlns="http://www.w3.org/2000/svg" xmlns:xlink="http://www.w3.org/1999/xlink" width="30" zoomAndPan="magnify" viewBox="0 0 187.5 187.499992" height="30" preserveAspectRatio="xMidYMid meet" version="1.0"><defs><clipPath id="4cd46ae3bb"><path d="M 21.730469 54 L 137 54 L 137 132 L 21.730469 132 Z M 21.730469 54 " clip-rule="nonzero"/></clipPath><clipPath id="43f9153cf9"><path d="M 90 42.976562 L 165.347656 42.976562 L 165.347656 132 L 90 132 Z M 90 42.976562 " clip-rule="nonzero"/></clipPath><clipPath id="26878d8d83"><path d="M 42 99 L 90 99 L 90 143.957031 L 42 143.957031 Z M 42 99 " clip-rule="nonzero"/></clipPath><clipPath id="3ff5d48e1a"><path d="M 50 76 L 145 76 L 145 143.957031 L 50 143.957031 Z M 50 76 " clip-rule="nonzero"/></clipPath><clipPath id="61e0f2fdc7"><path d="M 71 111 L 116 111 L 116 143.957031 L 71 143.957031 Z M 71 111 " clip-rule="nonzero"/></clipPath></defs><g clip-path="url(#4cd46ae3bb)"><path fill="#ffffff" d="M 86.066406 63.410156 L 90.515625 70.199219 L 93.5 74.765625 L 130.726562 131.597656 L 136.726562 131.597656 L 95.59375 68.851562 L 93.5 65.652344 L 89.050781 58.863281 L 86.066406 54.3125 L 42.121094 121.363281 L 28.140625 76 L 21.738281 72.167969 L 38.917969 127.894531 L 40.054688 131.597656 L 41.375 131.597656 L 43.382812 128.527344 Z M 86.066406 63.410156 " fill-opacity="1" fill-rule="evenodd"/></g><path fill="#ffffff" d="M 149.296875 81.726562 L 142.898438 85.558594 L 138.894531 98.617188 L 142.453125 104.042969 Z M 149.296875 81.726562 " fill-opacity="1" fill-rule="evenodd"/><path fill="#ffffff" d="M 48.105469 98.617188 L 44.085938 85.558594 L 37.699219 81.726562 L 44.546875 104.042969 Z M 48.105469 98.617188 " fill-opacity="1" fill-rule="evenodd"/><g clip-path="url(#43f9153cf9)"><path fill="#ffffff" d="M 158.855469 76 L 144.878906 121.363281 L 95.59375 46.160156 L 93.5 42.976562 L 91.402344 46.160156 L 90.355469 47.769531 L 93.5 52.074219 L 143.617188 128.527344 L 145.625 131.597656 L 146.945312 131.597656 L 148.078125 127.894531 L 165.257812 72.167969 Z M 158.855469 76 " fill-opacity="1" fill-rule="evenodd"/></g><g clip-path="url(#26878d8d83)"><path fill="#ffffff" d="M 86.066406 99.679688 L 65.152344 131.582031 L 65.140625 131.597656 L 60.261719 139.03125 L 42.320312 139.046875 L 43.855469 144.027344 L 62.957031 144.027344 L 71.109375 131.597656 L 89.050781 104.226562 Z M 86.066406 99.679688 " fill-opacity="1" fill-rule="evenodd"/></g><g clip-path="url(#3ff5d48e1a)"><path fill="#ffffff" d="M 121.859375 131.597656 C 110.90625 114.90625 99.984375 98.230469 89.050781 81.539062 L 87.644531 79.386719 L 86.066406 76.972656 L 50.257812 131.597656 L 56.269531 131.597656 L 86.078125 86.101562 C 95.910156 101.101562 105.925781 116.382812 115.886719 131.582031 L 124.039062 144.011719 L 143.140625 144.011719 L 144.675781 139.015625 L 126.738281 139.015625 Z M 121.859375 131.597656 " fill-opacity="1" fill-rule="evenodd"/></g><g clip-path="url(#61e0f2fdc7)"><path fill="#ffffff" d="M 71.871094 144.027344 L 115.128906 144.027344 L 93.5 111.03125 Z M 93.5 139.03125 L 81.113281 139.03125 L 93.5 120.128906 L 105.898438 139.03125 Z M 93.5 139.03125 " fill-opacity="1" fill-rule="evenodd"/></g></svg>